<?xml version="1.0" encoding="utf-8"?>
<!-- Generator: Adobe Illustrator 21.0.2, SVG Export Plug-In . SVG Version: 6.00 Build 0)  -->
<svg version="1.1" id="Layer_1" xmlns="http://www.w3.org/2000/svg" xmlns:xlink="http://www.w3.org/1999/xlink" x="0px" y="0px"
	 viewBox="0 0 500 500" style="enable-background:new 0 0 500 500;" xml:space="preserve">
<style type="text/css">
	.st0{fill:#231F20;}
</style>
<path class="st0" d="M386.4,243.9c0-0.8,0-1.6,0-2.5c0-72.3-57.9-131.2-129.8-132.9l-4.4-19.6l-4.3,19.7
	c-70.8,2.9-127.5,61.4-127.5,132.9c0,0.7,0,1.4,0,2.2l-29.4,6.4l30.2,6.6c7.2,63.2,58.9,113.1,123,117.5l8.3,37.9l8.3-37.8
	c64.9-3.6,117.5-53.9,124.7-117.8l29.2-6.4L386.4,243.9z M246.2,116.7l-1.3,6.1c-61.3,4.4-109.9,55.5-110.3,117.8l-6,1.3
	c0-0.1,0-0.3,0-0.4C128.5,175,180.6,120.5,246.2,116.7z M178.6,175.8l31.1,48.3l-61.2,13.4c1.9-52.1,42-94.6,93.1-100.4l-15.4,69.7
	L178.6,175.8z M226,209.2l-2.2,12l-37.7-37L226,209.2z M107.5,250.1l118.2-23.4l26.8,23.4H107.5z M186,316.7
	c0.1-0.3,26-41.1,26-41.1l11.8,3.3C223.9,278.9,186,317,186,316.7z M226.6,293.4l11.4,51.9c-20.3-3-38.7-11.8-53.4-24.7L226.6,293.4
	z M182,318.3c-15.6-14.5-26.7-33.6-31.3-55.2l58.9,12.9L182,318.3z M129.6,258.5l6.3,1.4c8.3,52.9,51.5,94.4,105.3,99.9l1.4,6.2
	C184.4,360.9,137.5,315.8,129.6,258.5z M252.4,396.8l-26.1-123.1l26.1-23.6V396.8z M378.5,241.5c0,0.2,0,0.5,0,0.7l-6-1.3
	c-0.3-63.2-50.1-114.9-112.6-118.2l-1.4-6.1C325.1,119.2,378.5,174.2,378.5,241.5z M327,175.9l-48.3,30.8L263,136.9
	c52.3,4.7,93.6,47.9,95.4,101L296,224.4L327,175.9z M293.5,224.2l-12-3.3l37-37L293.5,224.2z M252.7,104.2l26.8,122.7L252.7,250
	V104.2z M262.7,366.1l1.3-6.1c54.7-4.8,98.8-46.8,107.1-100.4l6.3-1.4C369.5,316.3,321.7,361.8,262.7,366.1z M319.5,316.4
	l-40.9-25.9l2.9-12L319.5,316.4z M295.8,276.1l60.5-13.2c-4.7,22.4-16.5,42.3-33,57L295.8,276.1z M278.6,293.2l42.9,28.1
	c-15.1,12.8-33.8,21.5-54.3,24.2L278.6,293.2z M278.8,272.6l-25.9-22.5h145.8L278.8,272.6z"/>
<path class="st0" d="M245.8,81.6h-4.4V56.9h6.2l10.1,17.8V56.9h4.3v24.7h-5l-11.2-20V81.6z M82.5,255.1l-4.7-19.9h-4.7l-4.8,19.9
	l-5-19.9h-4.6l5.9,23.4h6.5l4.2-15.9l4.1,15.9h6.3l5.8-23.4h-4.2L82.5,255.1z M439.5,237.1v-2.5h-18v24.7h18v-2.5h-13.1V248h10.7
	v-2.5h-10.7v-8.4H439.5z M247.8,425c0-2,1.5-3.2,5-3.2c3.5,0,5,1.2,5,3.3v0.8h4.6v-0.6c0-3.5-3.1-5.7-9.7-5.7
	c-6.5,0-9.7,2.2-9.7,5.7c0,6.4,14.6,6.9,14.6,12c0,2.1-1.6,3.3-5.1,3.3c-3.5,0-5.1-1.2-5.1-3.3v-1.4h-4.6v1.3c0,3.5,3.1,5.7,9.8,5.7
	s9.9-2.3,9.9-5.7C262.5,430.6,247.8,430.1,247.8,425z"/>
</svg>
